<?xml version="1.0" encoding="utf-8"?>
<!-- Generator: Adobe Illustrator 25.3.1, SVG Export Plug-In . SVG Version: 6.00 Build 0)  -->
<svg version="1.1" id="Layer_1" xmlns="http://www.w3.org/2000/svg" xmlns:xlink="http://www.w3.org/1999/xlink" x="0px" y="0px"
	 viewBox="0 0 155.73 153.65" style="enable-background:new 0 0 155.73 153.65;" height="1.5rem" xml:space="preserve">
<style type="text/css">
	.st0{fill:#ffff;}
</style>
<g>
	<path class="st0" d="M77.87,50.03c-16.21,0-29.34,13.13-29.34,29.34c0,16.2,13.13,29.34,29.34,29.34
		c16.2,0,29.34-13.14,29.34-29.34C107.21,63.16,94.07,50.03,77.87,50.03z M77.87,97.55c-10.04,0-18.18-8.14-18.18-18.18
		c0-10.04,8.14-18.18,18.18-18.18c10.04,0,18.18,8.14,18.18,18.18C96.05,89.41,87.91,97.55,77.87,97.55z"/>
	<path class="st0" d="M78.14,34.02L78.14,34.02c-2.83,0-5.13-2.3-5.13-5.13V5.63c0-2.83,2.3-5.13,5.13-5.13h0
		c2.83,0,5.13,2.3,5.13,5.13v23.26C83.27,31.72,80.97,34.02,78.14,34.02z"/>
	<path class="st0" d="M49.16,44.33L49.16,44.33c-2.17,1.82-5.41,1.54-7.23-0.63L26.98,25.88c-1.82-2.17-1.54-5.41,0.63-7.23l0,0
		c2.17-1.82,5.41-1.54,7.23,0.63L49.79,37.1C51.62,39.27,51.33,42.51,49.16,44.33z"/>
	<path class="st0" d="M33.59,70.85L33.59,70.85c-0.49,2.79-3.15,4.65-5.94,4.16L4.74,70.97c-2.79-0.49-4.65-3.15-4.16-5.94l0,0
		c0.49-2.79,3.15-4.65,5.94-4.16l22.91,4.04C32.22,65.4,34.08,68.06,33.59,70.85z"/>
	<path class="st0" d="M38.71,101.17L38.71,101.17c1.42,2.45,0.58,5.59-1.88,7.01l-20.14,11.63c-2.45,1.42-5.59,0.58-7.01-1.88l0,0
		c-1.42-2.45-0.58-5.59,1.88-7.01L31.7,99.3C34.15,97.88,37.29,98.72,38.71,101.17z"/>
	<path class="st0" d="M62.12,121.12L62.12,121.12c2.66,0.97,4.04,3.91,3.07,6.58l-7.96,21.86c-0.97,2.66-3.91,4.04-6.58,3.07h0
		c-2.66-0.97-4.04-3.91-3.07-6.58l7.96-21.86C56.52,121.52,59.46,120.15,62.12,121.12z"/>
	<path class="st0" d="M92.88,121.34L92.88,121.34c2.66-0.97,5.61,0.4,6.58,3.07l7.96,21.86c0.97,2.66-0.4,5.61-3.07,6.58h0
		c-2.66,0.97-5.61-0.4-6.58-3.07l-7.96-21.86C88.84,125.25,90.21,122.31,92.88,121.34z"/>
	<path class="st0" d="M116.58,101.75L116.58,101.75c1.42-2.45,4.55-3.29,7.01-1.88l20.14,11.63c2.45,1.42,3.29,4.55,1.88,7.01v0
		c-1.42,2.45-4.55,3.29-7.01,1.88l-20.14-11.63C116,107.34,115.16,104.2,116.58,101.75z"/>
	<path class="st0" d="M122.14,71.5L122.14,71.5c-0.49-2.79,1.37-5.45,4.16-5.94l22.91-4.04c2.79-0.49,5.45,1.37,5.94,4.16v0
		c0.49,2.79-1.37,5.45-4.16,5.94l-22.91,4.04C125.3,76.15,122.64,74.29,122.14,71.5z"/>
	<path class="st0" d="M106.96,44.75L106.96,44.75c-2.17-1.82-2.45-5.06-0.63-7.23l14.95-17.82c1.82-2.17,5.06-2.45,7.23-0.63l0,0
		c2.17,1.82,2.45,5.06,0.63,7.23l-14.95,17.82C112.37,46.29,109.13,46.57,106.96,44.75z"/>
</g>
</svg>
